<svg width="250" height="75" viewBox="0 0 250 75" fill="none" xmlns="http://www.w3.org/2000/svg">
<g clip-path="url(#clip0_230_782)">
<path d="M45.0715 15.5216C45.0198 15.5475 44.9681 15.5819 44.9164 15.6078C44.8991 15.6164 44.8905 15.625 44.8733 15.6337C44.8302 15.6595 44.7957 15.6854 44.7526 15.7112C44.7267 15.7285 44.7009 15.7457 44.675 15.763C44.6491 15.7802 44.6147 15.8061 44.5888 15.8233C44.5543 15.8492 44.5198 15.875 44.4854 15.9009C44.4681 15.9181 44.4423 15.9267 44.425 15.944C44.3733 15.9785 44.3388 16.0129 44.2871 16.0474C44.2871 16.0474 44.2699 16.0647 44.2613 16.0647C43.0028 17.0818 41.8736 18.711 41.5546 20.1246C40.9771 22.0382 41.1753 24.9345 42.6924 25.4689C42.6924 25.4689 42.7097 25.4689 42.7183 25.4775C42.77 25.4948 42.8131 25.5034 42.8562 25.512C42.8821 25.512 42.9079 25.5293 42.9338 25.5293C42.9683 25.5293 43.0028 25.5379 43.0372 25.5465C43.0803 25.5465 43.1234 25.5551 43.1665 25.5551H43.4596C43.5286 25.5551 43.5975 25.5379 43.6665 25.5206C43.6837 25.5206 43.6923 25.5206 43.701 25.512C43.7785 25.4948 43.8475 25.4775 43.9251 25.4517C43.9423 25.4517 43.9596 25.4344 43.9768 25.4344C44.0458 25.4086 44.1233 25.3827 44.1923 25.3482C44.2182 25.331 44.2526 25.3224 44.2871 25.3051C44.3474 25.2793 44.4078 25.2448 44.4681 25.2189C44.5285 25.1931 44.5888 25.15 44.6491 25.1155C44.675 25.0983 44.7009 25.0896 44.7267 25.0724C44.9164 24.969 45.0974 24.8569 45.2698 24.7362C45.287 24.719 45.3043 24.7104 45.3215 24.7017C45.3732 24.6673 45.4249 24.6242 45.4767 24.5897C45.5111 24.5638 45.5456 24.538 45.5887 24.5035C45.6232 24.4776 45.649 24.4518 45.6835 24.4259C45.7352 24.3828 45.787 24.3397 45.8387 24.2966C45.8559 24.2794 45.8645 24.2708 45.8904 24.2535C45.9507 24.1932 46.0111 24.1415 46.08 24.0811C47.8902 22.3658 48.8815 19.6419 48.3902 17.2628C48.1402 16.1078 47.6402 15.0992 46.5369 15.0734H46.218C45.8559 15.1337 45.468 15.2803 45.0801 15.4957C45.0801 15.4957 45.0629 15.4957 45.0629 15.5044V15.5216H45.0715Z" fill="white"/>
<path d="M24.0132 33.0802C24.0132 32.9768 23.996 32.8734 23.9787 32.7613L23.9615 32.6837C23.9356 32.5975 23.9098 32.52 23.8753 32.4338C23.8581 32.3907 23.8408 32.3476 23.8236 32.3045C23.815 32.2786 23.7977 32.2527 23.7891 32.2269L23.7632 32.1752C23.5219 31.6924 23.1426 31.2184 22.6599 30.7787C22.634 30.7529 22.5996 30.727 22.5737 30.7012C22.5565 30.6839 22.5478 30.6753 22.5306 30.6581C21.4531 29.7013 19.9705 28.9427 18.7293 28.7703H18.7034C18.4103 28.71 18.0914 28.6669 17.7552 28.6496H17.6776C16.876 28.5979 16.0054 28.6841 15.2641 28.9082C15.2468 28.9082 15.2296 28.9082 15.2124 28.9255C15.1865 28.9255 15.152 28.9427 15.1262 28.9513C14.359 29.2013 13.747 29.6151 13.5401 30.2098C13.5401 30.2098 13.5401 30.2271 13.5315 30.2357C13.5142 30.2788 13.5056 30.3219 13.497 30.365C13.4884 30.4167 13.4798 30.4598 13.4711 30.5115V30.5374C13.4453 30.7787 13.4884 31.0373 13.5918 31.3304C13.6091 31.3821 13.6263 31.4339 13.6522 31.4856C13.6522 31.5028 13.6694 31.5201 13.678 31.5373C13.8159 31.8217 14.0142 32.1407 14.29 32.4769C15.6864 34.2698 18.1603 35.2869 20.436 35.2007C21.0049 35.1835 21.5738 35.0973 22.1082 34.9421C23.1168 34.6404 24.0132 34.1232 24.0391 33.2009V33.1147H24.0305L24.0132 33.0802Z" fill="white"/>
<path d="M20.005 20.4004C18.4534 20.3832 17.2984 21.1676 17.9362 23.5208C18.0483 24.0122 18.2207 24.4863 18.4362 24.9345C18.4534 24.9603 18.462 24.9948 18.4879 25.0293C18.4965 25.0465 18.5051 25.0638 18.5138 25.081C19.6085 27.2618 21.8583 28.9513 24.1942 29.3737C24.6252 29.4513 25.0648 29.503 25.4872 29.503H25.6855C26.3406 29.4858 26.9267 29.3306 27.2974 28.9082C27.3405 28.8479 27.3836 28.7962 27.4181 28.7445C27.4439 28.7014 27.4784 28.6496 27.5043 28.5979C27.5043 28.5807 27.5215 28.5721 27.5301 28.5548C27.6163 28.3738 27.6939 28.1669 27.7284 27.917V27.8308C27.9439 25.7965 25.9699 22.7019 23.8839 21.5814C22.8064 20.909 21.2635 20.3832 20.005 20.3918V20.4004Z" fill="white"/>
<path d="M22.9961 39.6917C22.9961 39.5969 22.9788 39.5107 22.9616 39.4158C22.9616 39.3814 22.9444 39.3383 22.9357 39.3038V39.2865C22.8323 38.9331 22.5823 38.6314 22.2375 38.3815C22.2203 38.3642 22.2031 38.3556 22.1858 38.347C22.16 38.3297 22.1255 38.3125 22.0996 38.2866C21.3497 37.7953 20.2291 37.5281 19.1516 37.4247C18.3931 37.3471 17.669 37.3557 17.1432 37.4247C17.0139 37.4419 16.8932 37.4591 16.7812 37.485C16.5829 37.5109 16.3502 37.554 16.1002 37.6229C15.4451 37.7867 14.6262 38.1401 13.9539 38.5883C13.9366 38.5883 13.9194 38.6056 13.9021 38.6228C13.1867 39.0969 12.6609 39.6744 12.6781 40.252V40.3295C12.704 40.6226 12.885 40.9071 13.2556 41.1829C13.2901 41.2088 13.3246 41.2346 13.3591 41.2605C13.3591 41.2605 13.3763 41.2777 13.3849 41.2777C13.4625 41.3381 13.5401 41.3898 13.6263 41.4415H13.6349C13.7211 41.4932 13.8073 41.5449 13.8935 41.5967H13.9108C13.997 41.6398 14.0745 41.6829 14.1694 41.726C14.1866 41.726 14.2038 41.7432 14.2211 41.7518C14.2986 41.7863 14.3762 41.8208 14.4538 41.8553C14.4797 41.8725 14.5141 41.8811 14.5486 41.8897C14.609 41.9156 14.6779 41.9328 14.7469 41.9587C14.7986 41.9759 14.8503 41.9932 14.902 42.0104C14.9538 42.0277 14.9969 42.0363 15.0486 42.0535C15.1175 42.0708 15.1865 42.0966 15.2641 42.1139C15.2899 42.1139 15.3244 42.1311 15.3589 42.1397C15.4451 42.1656 15.5399 42.1828 15.6261 42.2C15.6433 42.2 15.652 42.2 15.6692 42.2C15.7813 42.2173 15.8847 42.2431 15.9881 42.2604C16.5743 42.3552 17.1863 42.3897 17.7983 42.3638H17.8328C17.9362 42.3638 18.0483 42.3638 18.1517 42.3466C18.1862 42.3466 18.2121 42.3466 18.2465 42.3466C18.3327 42.3466 18.4103 42.3293 18.4965 42.3207C18.5569 42.3207 18.6086 42.3035 18.6689 42.2949C18.7293 42.2949 18.781 42.2776 18.8413 42.269C18.9275 42.2518 19.0051 42.2432 19.0913 42.2259C19.1171 42.2259 19.1516 42.2259 19.1775 42.2087C19.2895 42.1914 19.393 42.157 19.4964 42.1397H19.5137C20.436 41.9156 21.2893 41.5449 21.9445 41.0191C21.9617 41.0019 21.9876 40.9846 22.0048 40.9674C22.0479 40.9329 22.091 40.8898 22.1341 40.8554C22.1772 40.8123 22.2203 40.7778 22.272 40.7347C22.2893 40.7174 22.2979 40.7088 22.3151 40.6916C22.5909 40.4244 22.8151 40.1227 22.9875 39.7951L23.0219 39.6744H23.0392H22.9961V39.6917Z" fill="white"/>
<path d="M54.4241 29.0548C54.4241 29.0548 54.3465 29.0806 54.312 29.0893C54.2689 29.1065 54.2172 29.1151 54.1655 29.141H54.1482C53.45 29.391 52.7518 29.7616 52.1226 30.2271C52.1226 30.2271 52.1053 30.2271 52.1053 30.2443C52.0536 30.2788 52.0019 30.3219 51.9588 30.3564C51.9415 30.3736 51.9243 30.3822 51.8984 30.3995C51.864 30.4253 51.8295 30.4598 51.7864 30.4857C51.7605 30.5115 51.726 30.5374 51.6916 30.5632C51.6657 30.5805 51.6485 30.6063 51.6226 30.6236C51.5795 30.6581 51.545 30.6925 51.5019 30.7356C51.5019 30.7356 51.4761 30.7529 51.4675 30.7701C51.4157 30.8132 51.3726 30.8563 51.3209 30.908C50.8985 31.3304 50.5451 31.77 50.321 32.2096V32.2269C50.2952 32.2786 50.2693 32.3131 50.2521 32.3648C50.2521 32.382 50.2521 32.3907 50.2348 32.4165C50.2176 32.451 50.209 32.4855 50.1917 32.5286C50.1917 32.5544 50.1745 32.5803 50.1659 32.6062C50.1572 32.632 50.1486 32.6579 50.14 32.6837C50.1228 32.7268 50.1141 32.7613 50.1055 32.7958V32.813L50.0883 32.8906C49.9935 33.2095 50.0107 33.5026 50.1141 33.7698C50.2176 34.0715 50.4244 34.3129 50.6917 34.5111C50.6917 34.5111 50.7089 34.5284 50.7175 34.537C50.7434 34.5542 50.7692 34.5715 50.7951 34.5973C50.821 34.6146 50.8554 34.6318 50.8813 34.6491C50.9761 34.7094 51.0709 34.7611 51.1744 34.8042C51.8295 35.1576 52.6656 35.3386 53.5621 35.3559C54.9326 35.4162 56.3635 35.1059 57.6048 34.468C58.5099 34.0198 59.3029 33.4164 59.8287 32.6665C60.6907 31.6494 60.8027 30.8477 60.4666 30.2357C59.777 28.9427 57.0962 28.5721 55.4067 28.8824C55.1136 28.9169 54.8033 28.9772 54.493 29.072C54.4844 29.072 54.4672 29.072 54.4499 29.072V29.0462L54.4241 29.0548Z" fill="white"/>
<path d="M45.6922 48.4581C45.4077 48.4581 45.1491 48.5012 44.9336 48.6046C44.9336 48.6046 44.8733 48.6305 44.8474 48.6563C44.8215 48.6736 44.8043 48.6822 44.7871 48.6994C44.7871 48.6994 44.7698 48.6994 44.7612 48.7167C43.7872 49.3976 43.7096 51.2768 44.1061 52.6128C44.744 55.3108 46.9162 57.6813 49.5883 58.4312C53.2518 59.6035 53.0104 55.2074 51.8209 52.8197C51.183 51.2768 49.5452 49.7597 47.9075 48.9925C47.8557 48.9666 47.804 48.9494 47.7609 48.9235H47.7437C47.0627 48.6218 46.3731 48.4494 45.7783 48.4753V48.4581H45.6922Z" fill="white"/>
<path d="M27.1336 23.2191C28.099 24.3656 29.9695 25.8051 31.366 25.4517C31.8142 25.3569 32.2193 25.0638 32.5124 24.5035L32.5555 24.4259C32.5555 24.4259 32.5727 24.3828 32.5814 24.357V24.3397C32.6331 24.2363 32.6762 24.1328 32.7193 24.0208C32.7365 23.9691 32.7451 23.926 32.771 23.8742C32.7968 23.8053 32.8227 23.7363 32.8313 23.6587C32.8572 23.5639 32.883 23.4605 32.8917 23.3571C32.8917 23.3312 32.8917 23.3053 32.9089 23.2795C33.2278 21.4176 32.5814 18.8402 31.297 17.4611C30.3661 16.3233 28.9093 15.2889 27.6939 15.2113C26.6768 15.1251 25.8148 15.7112 25.5476 17.5214C25.4183 18.2282 25.4269 18.9523 25.5476 19.6678C25.7372 20.9607 26.2802 22.2279 27.125 23.2191H27.1336Z" fill="white"/>
<path d="M25.6424 57.6296C25.9613 57.4658 26.2544 57.2934 26.5044 57.121C28.4697 55.828 29.9695 53.6472 30.0816 51.294C30.1592 50.363 29.9868 49.7166 29.6592 49.3028C29.6592 49.3028 29.642 49.2856 29.6334 49.2683C29.5989 49.2252 29.573 49.1907 29.5385 49.1563C29.3403 48.9494 29.0903 48.8201 28.8059 48.7425C28.7886 48.7425 28.7628 48.7425 28.7455 48.7253C28.6938 48.7253 28.6593 48.6994 28.6076 48.6994C28.5473 48.6994 28.4869 48.6822 28.4266 48.6736H28.4007C26.9698 48.527 24.9786 49.4924 23.7719 50.5527C21.91 51.9663 20.5739 55.2074 21.2635 57.121L21.2893 57.2072C21.729 58.8708 24.1253 58.4743 25.6596 57.6468L25.6424 57.6296Z" fill="white"/>
<path d="M34.4519 60.1983C34.4519 60.1983 34.4691 60.1724 34.4777 60.1552C34.7363 59.7845 34.9604 59.3967 35.1328 59.0088C36.1155 57.1555 36.0896 53.9403 35.0122 52.3973L34.9604 52.3198C33.8399 50.3889 31.7538 52.2077 30.9263 53.8368C30.0213 55.466 29.7023 57.4831 30.0988 59.3191C30.1333 59.5001 30.1764 59.6897 30.2368 59.8708C31.1332 63.086 33.1675 62.0343 34.4519 60.2069V60.1983Z" fill="white"/>
<path d="M37.8826 13.9873C37.5119 13.5649 37.1413 13.4787 36.7965 13.6166C36.3137 13.7718 35.8397 14.3493 35.4604 15.4613C35.2018 16.1336 35.0208 16.8749 34.9604 17.4869C34.8139 18.642 34.8484 19.8919 35.1414 21.0469C35.4087 22.2106 35.8655 23.0898 36.3913 23.5036C36.762 23.8225 37.1068 23.857 37.4171 23.7018C37.917 23.4863 38.4084 22.7795 38.7704 21.4521C39.0462 20.5642 39.2014 19.616 39.21 18.9954V18.3231C39.1928 17.711 39.1324 17.1508 39.0204 16.6163C38.7876 15.4009 38.3739 14.4786 37.8826 13.9873Z" fill="white"/>
<path d="M57.7513 42.4414C57.8634 42.4242 57.9754 42.4155 58.0875 42.3897C58.1306 42.3897 58.1651 42.3724 58.2082 42.3724C58.303 42.3552 58.3892 42.338 58.4754 42.3207C58.5271 42.3207 58.5702 42.2949 58.6219 42.2862C58.6909 42.269 58.7512 42.2518 58.8202 42.2345C58.9064 42.2087 58.9926 42.1828 59.0788 42.1569C59.096 42.1569 59.1219 42.1397 59.1391 42.1397C59.6391 41.9845 60.1132 41.7777 60.5011 41.5191C61.1131 41.1312 61.363 40.7088 61.2941 40.2692C61.251 39.8037 60.8631 39.2779 59.958 38.709C58.984 38.0194 57.6134 37.6229 56.2428 37.5195H56.1825C56.0446 37.5195 55.9067 37.5022 55.7688 37.5022H55.2947C55.2171 37.5022 55.1395 37.5022 55.0619 37.5022C54.9844 37.5022 54.8981 37.5022 54.8206 37.5195C54.7171 37.5195 54.6223 37.5367 54.5275 37.5453C54.4672 37.5453 54.4154 37.5626 54.3637 37.5626C54.243 37.5798 54.131 37.597 54.0103 37.6229C53.9845 37.6229 53.95 37.6229 53.9155 37.6401C53.7776 37.666 53.6397 37.7005 53.5017 37.735H53.4845C53.1569 37.8212 52.8466 37.9246 52.5708 38.0625L52.4587 38.1142C52.4587 38.1142 52.3984 38.1401 52.3639 38.1573C52.3639 38.1573 52.3467 38.1573 52.3294 38.1746C51.1227 38.7262 50.8296 39.3555 51.0537 39.9589C51.2175 40.5106 51.8036 41.045 52.6484 41.5018C54.0879 42.3035 55.8894 42.6397 57.5444 42.4586H57.5789C57.6393 42.4586 57.7082 42.4414 57.7772 42.4328H57.7513V42.4414Z" fill="white"/>
<path d="M25.6769 45.8635L25.6941 45.7773V45.6566C25.7889 45.0705 25.6165 44.6222 25.2803 44.286C24.7373 43.674 23.746 43.4499 22.703 43.4585C22.1772 43.4413 21.6514 43.493 21.2032 43.5965C20.8153 43.6654 20.4532 43.7516 20.1429 43.8464C18.1 44.4671 16.2985 46.0186 15.4278 47.9581C14.9365 48.958 14.8762 49.6993 15.0917 50.251C15.0917 50.251 15.0917 50.2682 15.1003 50.2768C15.1175 50.3286 15.1434 50.3803 15.1693 50.4234C15.1865 50.4579 15.2124 50.501 15.2382 50.5354C15.2555 50.5527 15.2641 50.5699 15.2727 50.5872C15.3072 50.6389 15.3503 50.6906 15.3934 50.7423C15.5313 50.8889 15.7037 51.0182 15.9019 51.1216C15.945 51.1475 15.9881 51.1647 16.0399 51.1819C16.0657 51.1992 16.0916 51.2078 16.1174 51.2164C17.3156 51.725 19.2206 51.5526 20.5739 51.1044C22.8668 50.5096 25.3924 47.9236 25.6596 45.8893L25.6769 45.8635Z" fill="white"/>
<path d="M43.0976 61.1206C43.1752 60.9913 43.2355 60.862 43.2958 60.7241C43.3131 60.6896 43.3303 60.6465 43.3476 60.6121C43.6406 59.9828 43.8044 59.1984 43.8561 58.3537C43.9509 56.9831 43.7182 55.5522 43.1493 54.3023C42.8648 53.63 42.4769 53.0266 42.0115 52.5439C41.9942 52.518 41.977 52.5008 41.9511 52.4749C41.7529 52.2594 41.5632 52.087 41.3822 51.9577C39.0031 50.1131 37.8222 54.354 38.0463 56.5176C38.0463 57.552 38.4342 58.7846 39.0204 59.8276C39.5721 60.8275 40.3134 61.6637 41.115 61.974L41.1926 61.9999C41.9511 62.2843 42.6062 61.9998 43.1062 61.1206H43.0976Z" fill="white"/>
<path d="M56.5014 51.6129H56.5963C56.6394 51.6129 56.6825 51.6129 56.7169 51.5957C56.7773 51.5957 56.829 51.5784 56.8807 51.5784C56.9755 51.5612 57.0617 51.544 57.1566 51.5267H57.1824C57.3634 51.4836 57.5272 51.4319 57.6737 51.3629C58.846 50.8544 58.9495 49.7338 58.5271 48.5615C58.5099 48.5098 58.4926 48.4667 58.4754 48.4236C58.4754 48.4236 58.4754 48.4063 58.4668 48.3977C58.0961 47.4237 57.3893 46.4238 56.648 45.7342C55.0619 44.0188 51.6829 43.062 49.778 43.8033L49.6918 43.8378C49.0022 44.0533 48.6574 44.4929 48.5367 45.036C48.3126 45.7859 48.6057 46.7082 49.097 47.5616C49.3987 48.1391 49.778 48.6649 50.1486 49.0442C51.7002 50.8285 54.1568 51.906 56.5014 51.6302V51.6129Z" fill="white"/>
<path d="M47.4334 29.4771C47.4334 29.4771 47.4506 29.4771 47.4678 29.4944C47.4851 29.4944 47.5109 29.5116 47.5368 29.5202C48.9074 30.0202 51.1658 29.3823 52.5449 28.5117C54.6913 27.3911 56.6221 24.1328 56.2859 22.0813L56.2687 21.9951C56.1566 20.1936 53.5017 20.2711 51.8812 20.8918C49.1918 21.7882 46.8903 24.1846 46.4335 27.0119C46.3904 27.2618 46.3645 27.4773 46.3559 27.6842C46.3128 28.6583 46.7524 29.2186 47.4161 29.4944L47.4334 29.4771Z" fill="white"/>
<path d="M40.9254 6.91899C40.8995 6.98795 40.865 7.05691 40.8392 7.12587C40.8133 7.18621 40.7875 7.24655 40.7616 7.30689C40.7357 7.37585 40.7099 7.44481 40.684 7.52238C40.6582 7.58272 40.6409 7.65168 40.6237 7.71202C40.5978 7.78098 40.5806 7.84994 40.5547 7.92752C40.5375 7.98786 40.5202 8.05681 40.503 8.12577C40.4858 8.19473 40.4685 8.26369 40.4513 8.34127C40.434 8.41023 40.4254 8.47919 40.4082 8.54815C40.3909 8.6171 40.3823 8.68606 40.3651 8.76364C40.3478 8.8326 40.3392 8.90156 40.3306 8.97914C40.3306 9.0481 40.3134 9.11706 40.3047 9.18602C40.3047 9.26359 40.2875 9.34117 40.2789 9.41013C40.2789 9.47047 40.2616 9.53943 40.2616 9.60839C40.2616 9.68597 40.2616 9.76355 40.2444 9.84112V10.4531C40.2444 10.5393 40.2444 10.6169 40.2616 10.7031C40.2616 10.7634 40.2616 10.8238 40.2789 10.8755C40.2789 10.9531 40.2961 11.0393 40.3047 11.1255C40.3047 11.1858 40.322 11.2462 40.3306 11.2979C40.3478 11.3755 40.3565 11.453 40.3737 11.5306C40.3737 11.591 40.3996 11.6513 40.4082 11.7116C40.4254 11.7892 40.4427 11.8582 40.4599 11.9271C40.4771 11.9875 40.4944 12.0564 40.5116 12.1254C40.5289 12.1943 40.5461 12.2547 40.572 12.315C40.5978 12.3926 40.6237 12.4616 40.6409 12.5305C40.6582 12.5822 40.6754 12.634 40.7013 12.6857C40.7271 12.746 40.7444 12.8064 40.7702 12.8667C40.7702 12.8839 40.7875 12.9098 40.7961 12.927C40.7961 12.9443 40.7961 12.9529 40.8133 12.9701C41.0633 13.5649 41.3564 13.9356 41.6925 14.1338C41.7098 14.151 41.7356 14.1597 41.7529 14.1683C41.7529 14.1683 41.7701 14.1769 41.7787 14.1855C42.3649 14.5131 43.0631 14.3321 43.8475 13.6339C44.4078 13.177 44.8819 12.5564 45.2525 11.8409C45.3301 11.703 45.3991 11.5565 45.4594 11.4186C45.899 10.5824 46.1318 9.47909 46.149 8.37575C46.1921 7.25517 46.0111 6.16045 45.5542 5.29846C45.5111 5.22088 45.4767 5.15192 45.4336 5.08297C45.4163 5.05711 45.4077 5.03125 45.3818 5.00539L45.3301 4.92781C45.2439 4.77265 45.1577 4.65197 45.0629 4.54853C45.0629 4.54853 45.0629 4.53129 45.0457 4.53129C45.0198 4.50544 44.9853 4.47096 44.9595 4.4451C44.9336 4.42786 44.9164 4.402 44.8905 4.38476C44.8733 4.37614 44.8646 4.3589 44.8474 4.35028C44.8129 4.32442 44.7698 4.28994 44.7353 4.2727C44.3992 4.04858 44.0113 4.02272 43.6234 4.12616H43.6061C43.6061 4.12616 43.5286 4.15202 43.4855 4.16064C43.4682 4.16064 43.451 4.16926 43.4337 4.17788C43.4079 4.1865 43.3734 4.19512 43.3475 4.21236C43.3217 4.2296 43.2872 4.23822 43.2613 4.25546C43.2441 4.25546 43.2355 4.2727 43.2183 4.2727C43.1752 4.28994 43.1321 4.3158 43.089 4.34166C42.5631 4.63473 42.0546 5.12606 41.6667 5.6605C41.6494 5.67774 41.6408 5.70359 41.615 5.72083C41.615 5.72945 41.5977 5.73807 41.5977 5.74669C41.4339 5.97943 41.2874 6.22079 41.1753 6.45352C41.1581 6.488 41.1409 6.5311 41.115 6.56558C41.0805 6.63454 41.046 6.7035 41.0116 6.76384C40.9857 6.82418 40.9598 6.88451 40.934 6.94485V6.91899H40.9254Z" fill="white"/>
<path d="M6.6356 22.2968C6.79076 22.7709 7.03211 23.2536 7.32519 23.6846C7.47173 23.9087 7.6355 24.1328 7.8079 24.3483C7.84238 24.3914 7.87686 24.4345 7.91996 24.4776C9.00606 25.7448 10.5232 26.6757 12.1523 27.0377C12.1695 27.0377 12.1954 27.0377 12.2126 27.055C12.2644 27.055 12.3161 27.0722 12.3678 27.0808C12.4109 27.0808 12.454 27.0981 12.4971 27.1067C12.523 27.1067 12.5574 27.1067 12.5919 27.1239C12.6523 27.1239 12.7126 27.1412 12.7643 27.1498H12.8333C12.8936 27.1498 12.9539 27.167 13.0229 27.167H13.1091C13.1608 27.167 13.2125 27.167 13.2643 27.167H13.497C13.747 27.167 13.997 27.167 14.2555 27.1412C14.4797 27.1239 14.6952 27.0894 14.8848 27.055C14.9279 27.055 14.971 27.0377 15.0055 27.0291C15.0313 27.0291 15.0572 27.0119 15.0831 27.0119C15.9795 26.7878 16.4105 26.2706 16.5312 25.6241V25.581C16.5312 25.5293 16.5484 25.4862 16.5484 25.4344V25.2362C16.5484 25.0207 16.5226 24.8052 16.4708 24.5725C16.4536 24.4949 16.4364 24.4345 16.4191 24.357C16.4191 24.3397 16.4019 24.3139 16.4019 24.2966C16.3847 24.2449 16.376 24.2018 16.3588 24.1501C16.3416 24.0897 16.3157 24.0294 16.2985 23.9691V23.9432C15.9019 22.883 15.1089 21.7969 14.3073 21.1073C13.9797 20.7711 13.5832 20.478 13.135 20.2108C13.1091 20.1936 13.0832 20.1849 13.0574 20.1677C12.9453 20.1074 12.8419 20.047 12.7298 19.9867C12.6867 19.9695 12.6523 19.9436 12.6092 19.9264C12.5057 19.8746 12.4023 19.8229 12.2902 19.7712C12.2557 19.754 12.2126 19.7453 12.1782 19.7195C12.0575 19.6678 11.9454 19.6247 11.8247 19.5729C11.8075 19.5729 11.7903 19.5557 11.7644 19.5557C10.2818 19.0126 8.6354 18.8661 7.53206 19.3402L7.44587 19.3747C6.93729 19.5385 6.62698 19.8746 6.48044 20.3229C6.24771 20.8832 6.34252 21.5641 6.5925 22.2451L6.6356 22.2882V22.2968Z" fill="white"/>
<path d="M57.3117 25.1327V25.3396C57.2945 26.7102 58.6047 27.2187 60.0701 27.2618C61.07 27.2963 62.1647 27.1067 63.0094 26.7964C63.0698 26.7791 63.1215 26.7619 63.1732 26.7447C64.6213 26.2706 66.1557 25.0207 67.0694 23.6587C67.078 23.6415 67.0866 23.6329 67.0952 23.6243C67.1211 23.5812 67.1556 23.5381 67.1814 23.4863C67.1987 23.4519 67.2245 23.426 67.2418 23.3915C67.259 23.3657 67.2676 23.3398 67.2849 23.314C67.3107 23.2709 67.3366 23.2191 67.3625 23.1674C67.3625 23.1502 67.3797 23.1416 67.3797 23.1329C67.4056 23.0726 67.44 23.0123 67.4659 22.9519V22.9347C67.5262 22.8054 67.5866 22.6761 67.6383 22.5382C67.6641 22.4778 67.6814 22.4089 67.7073 22.3485V22.3313C67.7245 22.2709 67.7417 22.2106 67.759 22.1589C67.759 22.1503 67.759 22.133 67.7676 22.1244C67.7762 22.0727 67.7934 22.021 67.8021 21.9779C67.8021 21.9606 67.8107 21.9348 67.8193 21.9175C67.8193 21.8744 67.8365 21.84 67.8365 21.7969C67.8365 21.7624 67.8452 21.7365 67.8538 21.702V21.5296L67.8624 21.4693C67.9658 20.8314 67.759 20.3487 67.3711 20.0039C66.8022 19.4178 65.8195 19.2109 64.8024 19.2281C64.1472 19.2195 63.4921 19.2971 62.9836 19.4523C60.5528 20.0039 58.3461 21.8227 57.5272 24.1846C57.3893 24.538 57.3117 24.8569 57.2858 25.1414H57.3117V25.1327Z" fill="white"/>
<path d="M50.0883 14.8924C49.9073 15.4871 49.8038 16.0819 49.8038 16.6249V16.737C49.8038 17.1421 49.8642 17.5214 49.9848 17.8576L50.0107 17.9352C50.4158 18.9695 51.2864 19.1937 52.2519 19.0644C52.7259 19.004 53.2345 18.8575 53.7258 18.6679C53.7517 18.6592 53.7776 18.642 53.8034 18.6334C53.8207 18.6334 53.8379 18.6161 53.8551 18.6161C53.881 18.5989 53.9155 18.5903 53.95 18.573C53.95 18.573 53.9586 18.573 53.9672 18.5644C56.4842 17.5042 58.6392 14.8665 58.7254 12.065C59.0357 7.7465 54.4241 9.48771 52.3725 11.3065C51.3382 12.1081 50.4934 13.4959 50.071 14.8924H50.0883Z" fill="white"/>
<path d="M20.5998 18.8661C21.1601 19.073 21.6428 19.1678 22.0565 19.1678C23.7029 19.1937 24.2029 17.7714 24.0736 16.1681V16.1422C24.0736 16.0733 24.0563 15.9957 24.0563 15.9267C24.0563 15.8578 24.0391 15.7888 24.0305 15.7285V15.6854C23.8925 14.7803 23.5908 13.8494 23.1857 13.1253C22.4789 11.591 20.6601 10.0739 18.9706 9.42737C18.9534 9.42737 18.9447 9.41875 18.9275 9.41013C18.8758 9.39289 18.8241 9.37565 18.7724 9.34979C18.7465 9.34117 18.7206 9.33255 18.6948 9.32393C18.6517 9.30669 18.6086 9.29807 18.5655 9.28083C18.5396 9.27221 18.5051 9.26359 18.4707 9.25497C18.4276 9.24635 18.3931 9.22911 18.35 9.2205C18.3241 9.2205 18.2896 9.20325 18.2638 9.20325C18.2207 9.19464 18.1776 9.18602 18.1345 9.1774C18.1172 9.1774 18.0914 9.16878 18.0741 9.16016C18.0224 9.15154 17.9707 9.14292 17.919 9.1343H17.8931C17.6604 9.09982 17.4277 9.08258 17.2208 9.10844H17.1346C17.0656 9.11706 17.0053 9.1343 16.9363 9.15154H16.9191C15.4106 9.43599 15.2986 11.0996 15.4796 12.6167C15.8244 15.3492 17.9621 18.0214 20.6256 18.8833L20.5998 18.8661Z" fill="white"/>
<path d="M28.4524 61.5689C28.3921 61.3103 28.3145 61.0689 28.2283 60.8362C28.0904 60.4741 27.8922 60.1552 27.6422 59.9225C27.6163 59.9052 27.5905 59.8794 27.5732 59.8621C27.2543 59.5949 26.8319 59.457 26.2975 59.5432L26.2199 59.5604C25.4441 59.6984 24.5994 60.2328 23.8408 60.9568C23.8063 60.9827 23.7719 61.0172 23.7374 61.0517C22.7547 62.0085 21.9358 63.267 21.6514 64.3962C21.41 65.1116 21.2893 66.0253 21.3238 66.9045V67.0942C21.3928 68.2234 21.729 69.2405 22.4185 69.6974C22.4185 69.6974 22.4961 69.7405 22.5392 69.7663C22.5651 69.7836 22.5909 69.7922 22.6168 69.8094C22.6254 69.8094 22.6427 69.8181 22.6513 69.8181C23.2116 70.0594 23.9615 69.9646 24.9355 69.344C26.8578 68.2579 28.237 66.077 28.53 63.8704C28.6421 63.0946 28.6248 62.3102 28.4524 61.5602V61.5689Z" fill="white"/>
<path d="M46.761 59.8535C46.1576 60.0173 45.6749 60.5172 45.4422 61.5171C45.3991 61.6723 45.3646 61.8447 45.3387 62.0171C45.2784 62.3533 45.2439 62.6894 45.2353 63.0342V63.3876C45.2784 65.0771 45.9421 66.7925 47.0627 68.0337C47.7868 68.844 48.9332 69.7232 50.0107 69.9732C50.0624 69.9818 50.1141 69.9905 50.1572 69.9991C50.1917 69.9991 50.2176 70.0077 50.2521 70.0077H50.321C50.321 70.0077 50.4158 70.0077 50.4589 70.0163H50.6658C50.7175 70.0163 50.7692 70.0163 50.8123 69.9991H50.8468C50.8468 69.9991 50.933 69.9818 50.9675 69.9732C50.9847 69.9732 51.0106 69.9646 51.0278 69.956C51.0537 69.9474 51.0882 69.9387 51.114 69.9301C51.1485 69.9215 51.1744 69.9043 51.2089 69.8956C51.2261 69.8956 51.2433 69.887 51.252 69.8784C51.2951 69.8612 51.3468 69.8353 51.3899 69.8094C51.726 69.6198 52.0191 69.2922 52.2519 68.7923L52.2863 68.7061C53.1052 66.8701 52.4415 63.4911 50.8554 61.8706C49.7349 60.5862 47.9764 59.4656 46.7179 59.8449H46.761V59.8535Z" fill="white"/>
<path d="M60.0011 54.2765C59.2167 53.7765 58.1909 53.3628 57.2169 53.1904C57.1824 53.1904 57.1479 53.1904 57.1048 53.1731C57.0617 53.1731 57.0273 53.1731 56.9842 53.1559C55.4153 52.9145 54.0103 53.3197 53.95 54.9747V55.2677C53.9672 55.5953 54.0275 55.966 54.1396 56.3969C54.8206 59.1639 57.4151 61.4827 60.1649 61.9999C60.82 62.1119 61.501 62.1809 62.113 62.1033H62.1733C62.225 62.1033 62.2681 62.086 62.3198 62.0774C62.3629 62.0774 62.406 62.0602 62.4405 62.0516C62.475 62.0429 62.5095 62.0343 62.5526 62.0257C62.6043 62.0085 62.6474 61.9998 62.6905 61.9826C62.725 61.974 62.7595 61.9567 62.7853 61.9395C62.8284 61.9223 62.8715 61.905 62.9146 61.8792C62.9491 61.8619 62.9922 61.8361 63.0267 61.8188C63.0612 61.8016 63.087 61.7843 63.1215 61.7585C63.1646 61.7326 63.2077 61.6982 63.2422 61.6551C63.2594 61.6378 63.2853 61.6292 63.3025 61.6033C63.3456 61.5602 63.3887 61.5085 63.4404 61.4568C63.4404 61.4482 63.4577 61.4396 63.4663 61.4309C63.518 61.3706 63.5611 61.3016 63.5956 61.2241C63.6904 61.0517 63.7594 60.8534 63.7938 60.6207V60.5345C64.0352 58.526 62.044 55.4229 59.9925 54.3023V54.2765H60.0011Z" fill="white"/>
<path d="M71.1638 35.2783C71.6293 34.5456 71.4483 33.7354 69.8881 33.0544C69.4226 32.8475 68.9313 32.6924 68.4227 32.5803C68.3279 32.5544 68.2244 32.5372 68.1296 32.52C66.3798 32.1665 64.3972 32.4079 62.837 33.2785C61.3286 34.0888 60.1907 35.5714 62.3285 36.623L62.4233 36.6747C64.3455 37.735 67.8279 37.7263 69.7933 36.4592C70.5001 36.0455 70.9397 35.649 71.1724 35.2697H71.1638V35.2783Z" fill="white"/>
<path d="M2.53255 34.6232L2.54979 34.6835C2.61875 34.8904 2.73943 35.0973 2.9032 35.2869C2.9032 35.2869 2.92044 35.3042 2.92044 35.3128C2.93768 35.3386 2.96354 35.3645 2.9894 35.3904C3.00664 35.4076 3.02388 35.4335 3.04974 35.4507C3.06698 35.4679 3.0756 35.4766 3.08422 35.4852C3.11008 35.5197 3.14456 35.5455 3.17904 35.58C3.81691 36.1834 4.82543 36.6747 5.82533 36.9764H5.84257C5.90291 36.9937 5.95463 37.0109 6.01497 37.0281C6.03221 37.0281 6.05807 37.0281 6.07531 37.0454C6.11841 37.0626 6.16151 37.0712 6.20461 37.0799C6.23909 37.0799 6.27357 37.0971 6.30805 37.1057C6.33391 37.1057 6.36838 37.123 6.39424 37.123C6.44596 37.123 6.48906 37.1488 6.53216 37.1574C6.5494 37.1574 6.55802 37.1574 6.57526 37.1574C6.6356 37.1747 6.69594 37.1833 6.75628 37.1919C7.08383 37.2523 7.39415 37.2954 7.68722 37.3126C8.90262 37.485 10.8766 37.123 12.0144 36.4075C12.523 36.0886 12.8678 35.7093 12.9022 35.2611V35.1835C12.9022 34.6835 12.523 34.106 11.5575 33.4854C9.66979 32.2614 7.03211 31.9252 4.89439 32.5631C4.17894 32.7958 3.38592 33.1061 2.92044 33.5802C2.66185 33.8388 2.49807 34.1491 2.53255 34.5284V34.5801V34.6232Z" fill="white"/>
<path d="M19.1258 53.1645C19.1258 53.1645 19.1085 53.1645 19.0999 53.1473C19.0827 53.1473 19.074 53.13 19.0568 53.1214C18.893 53.0093 18.6948 52.9231 18.462 52.8628L18.3758 52.8456C16.3847 52.4318 13.1608 54.1041 11.8506 56.0522C10.9541 57.2245 10.1525 59.1208 10.3077 60.4914C10.3077 60.5345 10.3163 60.5776 10.3249 60.6207V60.6552C10.4887 61.7154 11.2472 62.4308 13.0402 62.1636C13.7125 62.0947 14.3762 61.905 15.0055 61.6292C15.0313 61.612 15.0658 61.6033 15.0917 61.5947C15.1175 61.5861 15.1434 61.5689 15.1693 61.5602C17.2122 60.6207 18.8844 58.7157 19.5137 56.6297C19.7033 55.9918 19.8412 55.3195 19.824 54.7075C19.8154 54.0696 19.6257 53.5093 19.1344 53.1559H19.1258V53.1645Z" fill="white"/>
<path d="M28.9438 12.0995C28.9783 12.1771 29.0214 12.2461 29.0645 12.315C29.0817 12.3409 29.0989 12.3754 29.1162 12.4098C29.142 12.4616 29.1765 12.5047 29.2024 12.5478C29.2368 12.5995 29.2627 12.6512 29.2972 12.7029C29.3144 12.7288 29.3317 12.7546 29.3489 12.7805C29.4006 12.8495 29.4437 12.9184 29.4954 12.9788C29.4954 12.9788 29.4954 12.996 29.5127 12.996C29.9695 13.5735 30.5212 14.0304 31.1936 14.2976C32.4176 14.5734 32.9692 13.5304 33.4002 12.3323C33.4692 12.1512 33.5295 11.953 33.5813 11.7547C33.9002 10.5566 33.8226 9.05672 33.4175 7.67754C33.4175 7.64306 33.4002 7.60858 33.3916 7.5741C33.383 7.53962 33.3658 7.50514 33.3571 7.46205C32.8744 5.91909 31.9693 4.56577 30.7281 4.03134L30.6505 4.00548C30.5126 3.95376 30.3747 3.91929 30.254 3.91929H30.1419C29.4696 3.91929 28.9438 4.49682 28.6507 5.12606C27.7284 6.78108 27.7887 9.88422 28.9265 12.0823C28.9265 12.0909 28.9265 12.0995 28.9438 12.1081V12.0995Z" fill="white"/>
<path d="M14.0832 45.5877C14.0487 44.8722 13.566 44.2516 12.3506 43.9068C11.6437 43.6827 10.8938 43.5878 10.1439 43.5965H10.0922C9.98872 43.5965 9.88528 43.5965 9.78185 43.6137C8.29061 43.7085 6.808 44.2516 5.66156 45.1825C4.15308 46.3031 2.76529 48.7856 4.74785 49.7424L4.83405 49.7941C6.53216 50.7854 9.91114 50.4923 11.661 49.1563C12.9022 48.3374 14.109 46.9065 14.0918 45.6997V45.6652H14.0832V45.5877Z" fill="white"/>
<path d="M70.1639 48.2943V48.2598C70.1639 48.2081 70.1553 48.1564 70.1467 48.1046V48.0788C70.1381 48.0271 70.1294 47.9667 70.1122 47.915C70.1122 47.915 70.1122 47.8978 70.1036 47.8892C70.095 47.8374 70.0777 47.7771 70.0519 47.7254C70.0519 47.7081 70.0432 47.6995 70.0346 47.6909C70.0174 47.6392 70.0001 47.5875 69.9743 47.5357C69.9743 47.5185 69.9657 47.5013 69.957 47.484C69.9398 47.4409 69.9139 47.3892 69.8967 47.3461C69.8881 47.3202 69.8708 47.303 69.8622 47.2771C69.845 47.234 69.8191 47.1996 69.8019 47.1565C69.7846 47.1306 69.7674 47.0961 69.7502 47.0616C69.7329 47.0272 69.7157 47.0013 69.6898 46.9668C69.664 46.9237 69.6381 46.8893 69.6122 46.8462C69.595 46.8203 69.5864 46.8031 69.5691 46.7772C69.5347 46.7255 69.5002 46.6824 69.4657 46.6307C69.4657 46.6307 69.4485 46.6048 69.4398 46.5962C68.9054 45.8721 68.1555 45.2084 67.4487 44.7774C67.3366 44.6998 67.2332 44.6308 67.1211 44.5619C67.0521 44.5188 66.9832 44.4843 66.9142 44.4498C66.8711 44.4326 66.828 44.4067 66.7935 44.3895C65.8971 43.9499 64.7851 43.7171 63.7076 43.6999H63.1818C63.0784 43.6999 62.9836 43.7171 62.8801 43.7258C62.8284 43.7258 62.7681 43.7258 62.7164 43.743C62.6302 43.743 62.544 43.7689 62.4578 43.7775C62.3974 43.7775 62.3371 43.7947 62.2854 43.8033C62.1992 43.8206 62.113 43.8378 62.0268 43.8637C61.9751 43.8809 61.9233 43.8895 61.8716 43.8982C61.7768 43.924 61.682 43.9499 61.5958 43.9844C61.5613 43.9844 61.5268 44.0016 61.501 44.0188C61.3889 44.0619 61.2855 44.105 61.182 44.1481C61.182 44.1481 61.1734 44.1481 61.1648 44.1481C61.0269 44.2171 60.8889 44.2861 60.7597 44.3636L60.6993 44.3981C60.639 44.4326 60.5786 44.4671 60.5183 44.5102C60.5097 44.5102 60.4924 44.5274 60.4752 44.536C60.4407 44.5619 60.4149 44.5877 60.3804 44.605C60.3545 44.6308 60.32 44.6481 60.3028 44.6739C60.2856 44.6912 60.2769 44.6998 60.2683 44.7084C60.2338 44.7429 60.1994 44.7774 60.1649 44.8205C59.9149 45.1222 59.8373 45.467 59.8632 45.8376C59.8632 45.898 59.8718 45.9411 59.8804 45.9928V46.0273C59.8804 46.0273 59.889 46.1048 59.9063 46.1479C59.9063 46.1652 59.9149 46.191 59.9235 46.2083C59.9235 46.2341 59.9408 46.2686 59.9494 46.2945C59.958 46.3203 59.9666 46.3548 59.9752 46.3807C59.9752 46.3979 59.9925 46.4238 60.0011 46.441C60.0097 46.4841 60.027 46.5186 60.0442 46.5617C60.0442 46.5789 60.0528 46.5876 60.0528 46.5962C60.0701 46.6479 60.0959 46.6996 60.1218 46.7427C60.3114 47.1306 60.57 47.5185 60.8717 47.8633C60.8717 47.8633 60.889 47.8805 60.889 47.8892C60.9148 47.9236 60.9493 47.9581 60.9751 47.984C60.9924 48.0098 61.0183 48.0271 61.0355 48.0529C61.0527 48.0702 61.0613 48.0788 61.07 48.096C61.4061 48.4581 61.7768 48.777 62.113 48.9925C62.1647 49.027 62.2164 49.0701 62.2681 49.1046C62.3026 49.1304 62.3371 49.1563 62.3802 49.1821L62.6646 49.3631C62.6646 49.3631 62.7077 49.389 62.7422 49.4062C62.8543 49.4666 62.9577 49.5269 63.0698 49.5873C63.087 49.5873 63.0956 49.6045 63.1129 49.6045C63.2336 49.6648 63.3629 49.7252 63.4835 49.7855H63.5008C65.1041 50.4923 66.9746 50.6389 68.6123 50.0614C69.2933 49.8459 69.7243 49.5355 69.957 49.1649C69.957 49.1649 69.957 49.1649 69.9657 49.1477C69.9915 49.1046 70.0088 49.0701 70.026 49.027C70.026 49.0097 70.0432 48.9925 70.0519 48.9753C70.0691 48.9494 70.0777 48.9149 70.0863 48.8804C70.095 48.8546 70.1036 48.8287 70.1122 48.8029C70.1122 48.777 70.1208 48.7511 70.1294 48.7253C70.1381 48.6908 70.1467 48.6563 70.1553 48.6218V48.5615C70.1553 48.5615 70.1639 48.4753 70.1639 48.4322V48.2426H70.1553V48.2857L70.1639 48.2943Z" fill="white"/>
<path d="M38.8135 64.9306C38.3825 63.4825 37.8912 62.7153 37.4085 62.4481C37.4085 62.4481 37.3826 62.4308 37.374 62.4308C36.8137 62.1378 36.2793 62.5084 35.8397 63.1808C35.8397 63.1808 35.8138 63.2325 35.7966 63.2583C35.6328 63.5256 35.4776 63.8445 35.3397 64.1893C35.3397 64.2151 35.3225 64.2496 35.3052 64.2755V64.2927C34.9863 65.1547 34.788 66.1546 34.7794 66.9821V67.1287C34.7191 68.8699 35.2449 71.0679 36.3051 72.1196C36.5465 72.3351 36.7706 72.4126 36.9861 72.404H37.0378C37.6326 72.3523 38.1239 71.5937 38.4084 70.9817C38.8825 69.9818 39.1152 68.7837 39.1324 67.5769C39.1497 66.6718 39.0549 65.7581 38.8307 64.9478L38.8135 64.9306Z" fill="white"/>
<path d="M59.958 15.4182C59.958 15.4871 59.9752 15.5475 59.9839 15.6164C59.9839 15.6681 60.0011 15.7112 60.0097 15.763C60.0183 15.7974 60.027 15.8319 60.0356 15.875C60.0528 15.944 60.0787 16.0129 60.1045 16.0819C60.1045 16.0819 60.1045 16.0991 60.1132 16.1078C60.1994 16.3405 60.32 16.5474 60.4838 16.7198C60.6993 16.9266 60.9234 17.0818 61.1734 17.2025L61.2337 17.2283C61.2768 17.2456 61.3199 17.2714 61.3717 17.2887C61.4406 17.3145 61.5096 17.3404 61.5699 17.3663C62.0354 17.5214 62.5267 17.5559 63.0267 17.4956H63.0612L63.2422 17.4697C63.2422 17.4697 63.2939 17.4611 63.3197 17.4525C63.3628 17.4438 63.4146 17.4352 63.4577 17.418C63.5008 17.4094 63.5352 17.4007 63.5783 17.3835L63.6818 17.3576C63.7335 17.3404 63.7852 17.3232 63.8369 17.3059L63.9145 17.2801C63.9749 17.2542 64.0266 17.237 64.0869 17.2111C64.1041 17.2111 64.1214 17.1939 64.1472 17.1852C64.2076 17.1594 64.2679 17.1335 64.3283 17.099C64.3455 17.0904 64.3627 17.0818 64.38 17.0732C64.4403 17.0473 64.492 17.0128 64.5524 16.9784C64.5696 16.9697 64.5869 16.9525 64.6127 16.9439C64.6644 16.918 64.7162 16.8835 64.7679 16.8491C64.7937 16.8318 64.811 16.8146 64.8368 16.7973C64.8799 16.7715 64.923 16.737 64.9661 16.7025C64.992 16.6767 65.0265 16.6508 65.061 16.6336C65.0954 16.6077 65.1299 16.5818 65.1558 16.5474C65.1903 16.5215 65.2247 16.487 65.2678 16.4526C65.2937 16.4267 65.3109 16.4095 65.3368 16.3836C65.3799 16.3405 65.4144 16.306 65.4575 16.2629C65.4747 16.2457 65.4833 16.2284 65.5006 16.2112C65.5437 16.1595 65.5868 16.1078 65.6299 16.056C65.6385 16.0388 65.6471 16.0302 65.6557 16.0216C65.6988 15.9612 65.7419 15.9095 65.7764 15.8492C65.7764 15.8405 65.785 15.8319 65.7936 15.8233C65.8367 15.763 65.8712 15.7026 65.9057 15.6423C65.9057 15.6337 65.9229 15.6164 65.9229 15.6078C65.9574 15.5475 65.9833 15.4871 66.0178 15.4268C66.0264 15.4095 66.035 15.3923 66.0436 15.3751C66.0695 15.3233 66.0867 15.2716 66.1126 15.2199C66.1298 15.1854 66.1384 15.1596 66.1471 15.1251C66.1557 15.0906 66.1729 15.0475 66.1815 15.013C66.1988 14.9613 66.2074 14.901 66.2246 14.8493C66.2246 14.832 66.2246 14.8234 66.2333 14.8062C66.2936 14.5303 66.3195 14.2286 66.2936 13.9269V13.8063C66.2074 12.2978 64.9317 11.6858 63.5956 11.703C62.8543 11.703 62.1043 11.9013 61.5182 12.2547C60.4062 12.8495 59.8546 14.2286 59.9494 15.3751V15.444V15.4182H59.958Z" fill="white"/>
<path d="M0.593084 26.7878V26.8136C0.593084 26.8136 0.593083 26.9084 0.610323 26.9601V26.9774C0.610323 27.0291 0.627563 27.0808 0.636183 27.1325V27.1584C0.636183 27.2101 0.662042 27.2532 0.679282 27.3049V27.3222L0.705142 27.4256C0.82582 27.8566 1.04132 28.2359 1.32577 28.5376C1.32577 28.5376 1.34301 28.5548 1.35163 28.5634C1.39473 28.6065 1.42921 28.641 1.47231 28.6841C1.49817 28.7014 1.52403 28.7272 1.54127 28.7445C1.56713 28.7703 1.60161 28.7962 1.62747 28.822C1.66194 28.8479 1.70504 28.8824 1.74814 28.9082C1.76538 28.9255 1.78262 28.9341 1.79986 28.9427C1.85158 28.9772 1.91192 29.0117 1.96364 29.0462H1.98088C2.58427 29.3996 3.30834 29.572 4.01517 29.5375C4.09274 29.5375 4.1617 29.5375 4.23066 29.5202H4.25652C4.31686 29.5202 4.38582 29.503 4.44616 29.4944C4.4634 29.4944 4.48064 29.4944 4.49788 29.4944C4.55822 29.4944 4.60993 29.4685 4.66165 29.4599C4.68751 29.4599 4.71337 29.4427 4.73923 29.4427C4.79095 29.4254 4.83405 29.4168 4.87715 29.3996C4.90301 29.3996 4.93749 29.3823 4.96335 29.3737C5.00645 29.3565 5.04093 29.3478 5.08403 29.3306C5.11851 29.3134 5.15299 29.3047 5.18746 29.2875C5.22194 29.2703 5.2478 29.2616 5.28228 29.2444C5.32538 29.2272 5.35986 29.2099 5.40296 29.1841C5.42882 29.1668 5.45468 29.1582 5.48054 29.141C5.52364 29.1151 5.56674 29.0893 5.60984 29.0634C5.62708 29.0462 5.64432 29.0375 5.67018 29.0289C5.7219 28.9944 5.765 28.96 5.80809 28.9255C5.81671 28.9255 5.83395 28.9082 5.84257 28.8996C5.89429 28.8565 5.94601 28.8134 5.99773 28.7703H6.00635C6.26495 28.5203 6.47182 28.2186 6.61836 27.8652C6.61836 27.8394 6.62698 27.8135 6.6356 27.7877V27.7273C6.65284 27.6756 6.66146 27.6153 6.66146 27.5635V27.2187C6.66146 27.167 6.66146 27.1325 6.64422 27.0808C6.64422 27.0464 6.62698 27.0032 6.61836 26.9601C6.60974 26.9084 6.60112 26.874 6.58388 26.8222C6.57526 26.7878 6.55802 26.7447 6.5494 26.7102C6.53216 26.6585 6.52354 26.6154 6.49768 26.5636C6.48044 26.5292 6.47182 26.4947 6.45458 26.4602C6.42872 26.4085 6.40286 26.3568 6.38562 26.305C6.36838 26.2792 6.35114 26.2447 6.3339 26.2188C6.30805 26.1671 6.27357 26.1068 6.23909 26.0551C6.22185 26.0292 6.20461 26.0033 6.18737 25.9861C6.14427 25.9258 6.10979 25.874 6.06669 25.8137C6.04945 25.7965 6.04083 25.7792 6.02359 25.762C5.97187 25.7017 5.92877 25.6413 5.87705 25.5896C5.85981 25.5724 5.85119 25.5637 5.83395 25.5465C5.77361 25.4862 5.7219 25.4258 5.66156 25.3741C5.65294 25.3655 5.6357 25.3569 5.62708 25.3482C5.56674 25.2879 5.49778 25.2362 5.42882 25.1845C5.4202 25.1845 5.41158 25.1672 5.40296 25.1586C5.32538 25.1069 5.25642 25.0552 5.17884 25.0034C5.17022 25.0034 5.16161 24.9948 5.15299 24.9862C5.07541 24.9345 4.98921 24.8914 4.90301 24.8483C4.62717 24.7104 4.32548 24.6156 4.00655 24.5638C2.69633 24.3139 0.963737 24.9776 0.618943 26.2361V26.2533C0.618943 26.2533 0.601703 26.3309 0.593084 26.374C0.593084 26.3912 0.593084 26.4085 0.593084 26.4343C0.593084 26.4602 0.593084 26.4861 0.593084 26.5205C0.593084 26.555 0.593084 26.5809 0.593084 26.6154V26.7964H0.610323L0.593084 26.7878Z" fill="white"/>
<path d="M20.2119 5.97943V6.09149C20.2119 6.14321 20.2205 6.19493 20.2291 6.24665C20.2291 6.28974 20.2291 6.33284 20.2463 6.37594C20.2463 6.41904 20.2636 6.45352 20.2722 6.49662C20.2808 6.54834 20.2894 6.60868 20.3067 6.65178C20.3067 6.67764 20.3239 6.71212 20.3325 6.73798C20.3498 6.79832 20.367 6.86728 20.3929 6.92761C20.3929 6.94485 20.4101 6.96209 20.4101 6.97933C20.436 7.05691 20.4618 7.12587 20.4963 7.19483C20.4963 7.20345 20.5049 7.21207 20.5136 7.22069C20.548 7.29827 20.5911 7.37585 20.6342 7.45343C20.8153 7.79822 21.048 8.09991 21.3238 8.34989H21.3411C21.4014 8.41885 21.4704 8.47057 21.5307 8.52229C21.5479 8.53091 21.5566 8.53953 21.5738 8.54815C21.6341 8.59125 21.6859 8.63434 21.7462 8.66882C21.7721 8.68606 21.7979 8.7033 21.8238 8.72054C21.8755 8.7464 21.9186 8.78088 21.9617 8.80674C22.0048 8.8326 22.0479 8.84984 22.091 8.86708C22.1255 8.88432 22.16 8.89294 22.1944 8.9188C22.2548 8.94466 22.3151 8.97052 22.3754 8.98776C22.3841 8.98776 22.3927 8.99638 22.4013 9.005L22.5047 9.03948C22.7633 9.12568 23.0133 9.16016 23.2374 9.15154H23.2633C23.2633 9.15154 23.3323 9.15154 23.3667 9.14292C23.384 9.14292 23.4098 9.14292 23.4271 9.1343C23.4443 9.1343 23.4702 9.1343 23.4874 9.12568C23.5219 9.12568 23.5564 9.10844 23.5908 9.09982H23.6081C24.3494 8.89294 24.858 8.17749 25.1166 7.37585V7.35861C25.1166 7.35861 25.1338 7.28965 25.1424 7.25517C25.1424 7.23793 25.1597 7.21207 25.1597 7.19483C25.1597 7.17759 25.1597 7.16035 25.1769 7.13449C25.1769 7.10001 25.1941 7.06553 25.2028 7.02243C25.2803 6.6604 25.3148 6.30698 25.289 5.97081C25.3321 4.97091 24.7114 3.99686 23.9012 3.40209C23.9012 3.40209 23.8839 3.38485 23.8753 3.38485H23.8667C23.5477 3.16074 23.2116 2.99696 22.8668 2.91076C22.522 2.82456 22.1772 2.82456 21.8755 2.91938C21.8065 2.93662 21.7376 2.96248 21.6772 2.98834C20.7463 3.37623 20.3239 4.47958 20.2205 5.47086V5.5312C20.2032 5.62602 20.2032 5.71221 20.2032 5.80703V5.97943H20.2119Z" fill="white"/>
<path d="M67.6383 26.9774V26.9946C67.6211 27.0463 67.6124 27.0981 67.6124 27.1498C67.6124 27.167 67.6124 27.1929 67.6038 27.2101C67.6038 27.2446 67.5952 27.2791 67.5952 27.3136C67.5952 27.3567 67.5952 27.3998 67.5866 27.4429V27.4773C67.5866 27.6325 67.5866 27.7877 67.6038 27.9428C67.621 28.0549 67.6555 28.1497 67.6986 28.2531V28.2704C67.7245 28.3307 67.759 28.391 67.7934 28.4514C67.8021 28.4686 67.8107 28.4772 67.8193 28.4945C67.8538 28.5462 67.8969 28.5979 67.9314 28.6496C67.94 28.6669 67.9572 28.6841 67.9745 28.7014C68.0176 28.7531 68.0607 28.7876 68.1038 28.8393C68.121 28.8565 68.1382 28.8738 68.1641 28.891C68.2072 28.9341 68.2589 28.9772 68.3106 29.0117C68.3279 29.0289 68.3537 29.0462 68.371 29.0634C68.4227 29.1065 68.483 29.141 68.5348 29.1755C68.552 29.1927 68.5779 29.2013 68.5951 29.2099C68.6554 29.2444 68.7158 29.2789 68.7847 29.3134C68.802 29.3134 68.8278 29.3306 68.8451 29.3392C68.914 29.3737 68.983 29.3996 69.0606 29.4254C69.0778 29.4254 69.095 29.4427 69.1123 29.4427C69.1899 29.4685 69.2674 29.4944 69.345 29.5202C69.3623 29.5202 69.3709 29.5202 69.3881 29.5202C69.4743 29.5461 69.5519 29.5633 69.6467 29.5806H69.6812C69.7674 29.5978 69.8622 29.6064 69.9484 29.6151H69.9743C70.0605 29.6151 70.1553 29.6151 70.2501 29.6151H70.276C70.3708 29.6151 70.457 29.6151 70.5518 29.5978H70.5777C70.6725 29.5978 70.7587 29.572 70.8449 29.5547H70.8707C70.9569 29.5375 71.0431 29.5116 71.1293 29.4771C71.138 29.4771 71.1466 29.4771 71.1552 29.4771C71.2328 29.4513 71.319 29.4168 71.3965 29.3823H71.4138C72.112 29.0634 72.6464 28.4686 72.9223 27.8049V27.7877C72.9223 27.7877 72.9481 27.7101 72.9654 27.667C72.974 27.6411 72.9826 27.6239 72.9912 27.598C72.9912 27.5722 73.0085 27.5463 73.0171 27.5291C73.0257 27.486 73.0429 27.4515 73.0516 27.4084V27.3911C73.2153 26.7533 73.1464 26.0809 72.7585 25.5637C72.7585 25.5637 72.6981 25.4862 72.6637 25.4517C72.6464 25.4344 72.6378 25.4172 72.6206 25.4C72.6033 25.3741 72.5775 25.3569 72.5602 25.331C72.5344 25.3051 72.4999 25.2707 72.4654 25.2448C72.4568 25.2448 72.4482 25.2276 72.4395 25.2189C72.2241 25.0379 71.9655 24.8914 71.6379 24.7793C71.4224 24.6759 71.1983 24.6156 70.9828 24.5811H70.9483C70.9052 24.5811 70.8707 24.5725 70.8276 24.5638H70.5001C69.1726 24.6156 67.9141 25.6844 67.6038 26.9774H67.6383Z" fill="white"/>
<path d="M74.5859 42.1569C74.5859 42.1569 74.6031 42.1052 74.6031 42.0794C74.6204 42.019 74.629 41.9587 74.6376 41.8984V41.8466C74.6376 41.7777 74.6462 41.7001 74.6376 41.6311V41.5105L74.6204 41.4243C74.6204 41.4243 74.6031 41.3639 74.5945 41.3294C74.5945 41.3122 74.5859 41.295 74.5773 41.2863C74.56 41.226 74.5342 41.1657 74.5169 41.1139V41.0967C74.2411 40.4244 73.6808 39.9416 73.0257 39.6658C72.6206 39.4762 72.181 39.3641 71.7758 39.3641C71.5172 39.3641 71.2586 39.39 70.9914 39.4589C70.3794 39.5882 69.8277 39.8899 69.4829 40.3899C69.2243 40.7174 69.0692 41.1139 69.0864 41.5708V41.5967C69.1295 42.519 70.1122 43.5878 71.2759 43.8637C71.4396 43.9068 71.612 43.924 71.7844 43.9326H71.9051C72.9567 43.9326 74.1808 43.2689 74.5428 42.2776C74.56 42.2345 74.5773 42.1914 74.5859 42.1397V42.1569Z" fill="white"/>
<path d="M31.3142 70.0422C31.2625 69.9904 31.2194 69.9301 31.1591 69.887C31.1591 69.8784 31.1332 69.8698 31.1246 69.8612C31.0815 69.8267 31.0384 69.7836 30.9953 69.7491C30.9694 69.7319 30.935 69.706 30.9091 69.6888C30.8746 69.6629 30.8488 69.637 30.8143 69.6198C30.7626 69.5939 30.7195 69.5595 30.6591 69.5336C30.6419 69.525 30.6246 69.5164 30.6074 69.5077C30.4609 69.4302 30.3057 69.3784 30.1333 69.3267C29.5816 69.1802 28.9783 69.344 28.4611 69.6974C28.4611 69.6974 28.4438 69.706 28.4352 69.7146C28.4007 69.7405 28.3662 69.7663 28.3231 69.8008C28.28 69.8267 28.2456 69.8612 28.2025 69.8956C27.6336 70.3783 27.2198 71.0938 27.1767 71.8523C26.9957 73.3608 28.1249 75.2917 29.8058 74.9813L29.9092 74.9641C32.0211 74.5159 32.6072 71.5162 31.3056 70.0508H31.3142V70.0422Z" fill="white"/>
<path d="M34.8742 3.41071V3.43657C34.8742 3.43657 34.8742 3.48829 34.8915 3.51415C35.0553 4.41924 35.4173 5.02263 35.8828 5.36742C36.5465 5.88461 37.3912 5.80703 38.0722 5.25536C38.0722 5.25536 38.0894 5.23812 38.0981 5.2295C38.1325 5.20364 38.167 5.16916 38.2015 5.1433C38.236 5.10882 38.2705 5.07435 38.3049 5.03987C38.3049 5.03987 38.3222 5.02263 38.3308 5.01401C38.7273 4.60025 39.0376 4.0141 39.1928 3.26418V3.2297C39.1928 3.17798 39.21 3.13488 39.2186 3.09178V3.0142C39.2186 3.0142 39.2359 2.98834 39.2359 2.96248V2.8418C39.2704 2.54011 39.2359 2.22979 39.1583 1.9281V1.91086C39.1411 1.85914 39.1238 1.7988 39.1066 1.74708C38.7963 0.790279 38.0119 -0.00274713 36.9689 0.0834514C35.7362 0.298948 34.7967 1.86776 34.8656 3.33314C34.8656 3.359 34.8656 3.38485 34.8829 3.41071H34.8742Z" fill="white"/>
<path d="M48.7005 6.79832C48.7005 6.79832 48.7005 6.87589 48.7177 6.91899V6.95347C48.7177 6.95347 48.735 7.01381 48.735 7.03967C48.735 7.06553 48.735 7.08277 48.7522 7.10863C48.7522 7.12587 48.7522 7.14311 48.7522 7.16035C48.7522 7.19483 48.7694 7.23793 48.7781 7.27241V7.28965C49.028 8.11715 49.5883 8.82398 50.39 9.01362C50.4072 9.01362 50.4158 9.01362 50.4331 9.02224C50.4589 9.02224 50.4848 9.03086 50.5106 9.03948C50.5365 9.03948 50.571 9.0481 50.5968 9.05672H50.6227C50.8468 9.08258 51.0882 9.06534 51.3468 9.005L51.4588 8.97914C51.4588 8.97914 51.4761 8.97914 51.4933 8.97052C51.5537 8.95328 51.614 8.94466 51.6743 8.9188C51.7002 8.91018 51.7347 8.90156 51.7605 8.89294C51.8122 8.8757 51.8553 8.85846 51.9071 8.84122C51.9502 8.82398 51.9933 8.80674 52.0364 8.78088C52.0708 8.76364 52.0967 8.75502 52.1312 8.72916C52.1915 8.7033 52.2432 8.66882 52.295 8.63434C52.3122 8.62572 52.3294 8.61711 52.3467 8.59987C52.4156 8.55677 52.4846 8.51367 52.5449 8.46195C52.5449 8.46195 52.5622 8.45333 52.5622 8.44471C53.0018 8.12577 53.3638 7.68616 53.6138 7.19483C53.6138 7.19483 53.6138 7.17759 53.6224 7.17759C53.6569 7.10863 53.6828 7.03967 53.7172 6.97071C53.7172 6.95347 53.7345 6.93623 53.7431 6.91899C53.7689 6.85866 53.7862 6.79832 53.8034 6.7466C53.812 6.72074 53.8207 6.68626 53.8293 6.6604C53.8465 6.60868 53.8551 6.56558 53.8638 6.51386C53.8724 6.47076 53.881 6.43628 53.8896 6.39318C53.8983 6.35008 53.9069 6.30698 53.9069 6.25527C53.9069 6.21217 53.9241 6.16907 53.9241 6.12597C53.9327 6.03977 53.9413 5.94495 53.9413 5.85013V5.47086C53.881 4.47096 53.4242 3.39347 52.4674 3.08316C52.3553 3.04868 52.2432 3.0142 52.1139 3.00558C51.8898 2.9711 51.6485 2.97972 51.3985 3.02282C51.0451 3.08316 50.683 3.22108 50.3469 3.41933C49.4504 3.93653 48.7005 4.85885 48.6488 5.91047C48.6143 6.20355 48.6229 6.50524 48.6488 6.79832H48.7005Z" fill="white"/>
<path d="M9.80771 17.0387C10.3249 17.2542 10.9455 17.3576 11.5403 17.3404C12.8678 17.3232 14.1349 16.668 14.1607 15.1337V15.013C14.2211 14.2717 13.997 13.5994 13.6004 13.0391C13.135 12.3064 12.4109 11.7289 11.5403 11.5565C11.48 11.5392 11.4282 11.5306 11.3679 11.522C10.2904 11.2462 9.11812 11.4358 8.29061 12.315C8.03202 12.6167 7.87686 13.0046 7.81652 13.4356C7.57516 14.7889 8.31647 16.5732 9.79047 17.0559L9.80771 17.0387Z" fill="white"/>
<path d="M60.4752 66.2581C60.3545 64.672 58.9322 63.3963 57.4238 63.2152H57.3031C57.0186 63.1549 56.7514 63.1635 56.5101 63.2152C54.8378 63.4997 54.3379 65.7753 54.924 67.2752C55.2257 68.1889 56.0963 68.8612 57.0273 69.1802C57.3462 69.2922 57.6651 69.3612 57.9754 69.3871H58.0616C58.5185 69.4129 58.9495 69.344 59.2857 69.1629C59.9321 68.8268 60.2769 68.1889 60.4062 67.4907C60.4924 67.0769 60.5097 66.6546 60.4666 66.2581H60.4752Z" fill="white"/>
<path d="M45.106 69.6457C45.106 69.6457 45.0888 69.637 45.0801 69.6284C45.0457 69.6112 45.0026 69.5853 44.9681 69.5681L44.8733 69.525C44.8733 69.525 44.856 69.5164 44.8474 69.5077L44.8043 69.4905C43.5889 68.8699 42.6062 69.7491 42.1494 70.8438C42.1494 70.8524 42.1494 70.8611 42.1494 70.8697C42.1322 70.9042 42.1235 70.9386 42.1149 70.9645C42.1149 70.9817 42.0977 71.0076 42.0891 71.0248C42.0891 71.0507 42.0718 71.0766 42.0632 71.1024C42.0546 71.1283 42.046 71.1541 42.0373 71.18C42.0373 71.2058 42.0201 71.2317 42.0115 71.2576C42.0115 71.2834 41.9942 71.3093 41.9942 71.3265C41.9167 71.6282 41.8736 71.9385 41.8822 72.223C41.8822 72.3609 41.8994 72.4988 41.9167 72.6454C41.9167 72.6971 41.9339 72.7402 41.9425 72.7919V72.8264C42.2183 74.1021 43.4337 75.1106 44.4078 75.0762H44.5543C44.5543 75.0762 44.6405 75.0675 44.675 75.0589C44.7009 75.0589 44.7353 75.0589 44.7612 75.0417H44.7784C45.1232 74.9555 45.4249 74.7658 45.6749 74.5159C46.1145 74.1107 46.399 73.5763 46.511 72.9902C46.8645 71.7317 46.1749 70.2663 45.0974 69.6457H45.1146H45.106Z" fill="white"/>
<path d="M2.04984 43.8206H2.23086C3.43763 43.743 4.62717 42.9327 4.93749 41.7604C5.17023 40.4588 3.78243 39.3727 2.35153 39.2693H2.29981C1.99812 39.2434 1.6878 39.2693 1.40335 39.3469C0.446546 39.6141 -0.510257 40.4502 -0.717134 41.4156L-0.734374 41.5018C-0.915391 42.7259 0.463786 43.674 1.63609 43.812C1.774 43.8292 1.91192 43.8378 2.04122 43.8378H2.04984V43.8206Z" fill="white"/>
<path d="M19.3671 66.1288C19.3671 66.077 19.3757 66.0253 19.3844 65.9736V65.9305C19.393 65.7409 19.3844 65.5426 19.3585 65.353C19.3326 65.0082 19.2464 64.7151 19.1171 64.4565C19.0913 64.4048 19.0654 64.3617 19.0396 64.3186C19.0309 64.3013 19.0223 64.2927 19.0137 64.2755C18.9965 64.2496 18.9792 64.2238 18.962 64.1979C18.9447 64.172 18.9189 64.1376 18.893 64.1117C18.893 64.1031 18.8758 64.0945 18.8672 64.0859C18.3758 63.5083 17.5828 63.2928 16.7725 63.3359H16.7122C16.7122 63.3359 16.6346 63.3359 16.6001 63.3445C15.9106 63.4135 15.2296 63.6721 14.7124 64.0686C14.7038 64.0686 14.6952 64.0858 14.6865 64.0945C14.6865 64.0945 14.6693 64.1117 14.6607 64.1117C14.6348 64.129 14.609 64.1548 14.5831 64.1721C14.5745 64.1721 14.5659 64.1893 14.5572 64.1979C14.4797 64.2582 14.4107 64.3272 14.3504 64.3962C14.3331 64.4134 14.3245 64.422 14.3073 64.4393C14.2555 64.4996 14.2038 64.5599 14.1521 64.6203C14.1349 64.6461 14.109 64.672 14.0918 64.7065C14.0573 64.7582 14.0142 64.8185 13.9797 64.8703C13.9539 64.9134 13.928 64.9478 13.9108 64.9909C13.8849 65.0427 13.859 65.0858 13.8418 65.1289C13.8159 65.1806 13.7901 65.2323 13.7728 65.284C13.7556 65.3271 13.747 65.3616 13.7211 65.4047C13.6953 65.465 13.678 65.5254 13.6608 65.5857C13.6522 65.6202 13.6435 65.6547 13.6349 65.6978C13.6177 65.7581 13.6091 65.8271 13.5918 65.896C13.5918 65.9305 13.5746 65.965 13.5746 66.0081C13.566 66.0684 13.5573 66.1374 13.5487 66.1977C13.5487 66.2408 13.5487 66.2753 13.5401 66.3184V66.7752C13.5401 66.827 13.5401 66.8787 13.5573 66.9304C13.5573 66.9735 13.566 67.0166 13.5746 67.0597C13.5746 67.12 13.5918 67.1718 13.6004 67.2321C13.6004 67.2666 13.6177 67.3011 13.6263 67.3355C13.6435 67.3959 13.6522 67.4562 13.678 67.5079C13.6866 67.5338 13.6953 67.5683 13.7039 67.5941C13.7211 67.6545 13.747 67.7062 13.7642 67.7579C13.7815 67.7838 13.7901 67.8182 13.8073 67.8441C13.8332 67.8958 13.8504 67.9389 13.8849 67.9906C13.9021 68.0251 13.928 68.0596 13.9452 68.0941C13.9711 68.1286 13.997 68.1717 14.0142 68.2061C14.0401 68.2492 14.0745 68.2837 14.1004 68.3182C14.1176 68.3354 14.1263 68.3441 14.1349 68.3613C14.1349 68.3613 14.1521 68.3699 14.1521 68.3785C14.1694 68.3958 14.1866 68.4216 14.2038 68.4389C14.2986 68.5251 14.4021 68.6027 14.5055 68.663C14.5141 68.663 14.5228 68.6802 14.5314 68.6802C14.5745 68.7061 14.6262 68.7406 14.6693 68.7664C14.6952 68.7837 14.7296 68.8009 14.7641 68.8182C14.7986 68.8354 14.8245 68.844 14.8589 68.8613C14.902 68.8785 14.9451 68.9044 14.9969 68.9216C15.0141 68.9216 15.04 68.9388 15.0572 68.9474C15.1089 68.9647 15.1693 68.9819 15.221 68.9992C15.2382 68.9992 15.2555 69.0078 15.2727 69.0164C15.333 69.025 15.3934 69.0423 15.4537 69.0509H15.5054C15.5658 69.0595 15.6261 69.0681 15.6778 69.0681H16.2123C16.2123 69.0681 16.2985 69.0595 16.3416 69.0509C16.376 69.0509 16.4105 69.0423 16.445 69.0336C16.4881 69.0336 16.5226 69.0164 16.5657 69.0078C16.6001 68.9992 16.6432 68.9905 16.6777 68.9819C16.7122 68.9733 16.7553 68.9647 16.7898 68.9561C16.8329 68.9388 16.8674 68.9302 16.9105 68.9216C16.9449 68.913 16.9794 68.8957 17.0225 68.8871C17.057 68.8785 17.1001 68.8612 17.1346 68.844C17.1691 68.8268 17.2122 68.8182 17.2466 68.8009C17.2811 68.7837 17.3156 68.7751 17.3501 68.7578C17.3932 68.7406 17.4363 68.7147 17.4708 68.6975C17.4966 68.6802 17.5225 68.6716 17.5483 68.6544C17.6001 68.6285 17.6431 68.594 17.6949 68.5682C17.7121 68.5596 17.7293 68.5509 17.7466 68.5423C17.8069 68.5078 17.8586 68.4647 17.9104 68.4303C17.9104 68.4303 17.919 68.4303 17.9276 68.4216C18.6431 67.9044 19.1861 67.1545 19.3585 66.327C19.3585 66.3098 19.3585 66.2839 19.3671 66.2667C19.3671 66.2236 19.3844 66.1719 19.3844 66.1288H19.3671Z" fill="white"/>
<path d="M70.1553 56.9831C70.4656 56.1039 70.1725 55.0091 69.5347 54.1385C69.5174 54.1127 69.5002 54.0954 69.4916 54.0696C69.4657 54.0351 69.4312 53.992 69.4054 53.9575C68.7934 53.199 67.9227 52.6473 66.9487 52.6559H66.8797C66.8194 52.6559 66.7591 52.6559 66.6901 52.6559C66.466 52.6732 66.2419 52.7249 66.0091 52.8025C65.9402 52.8283 65.8798 52.8542 65.8195 52.88C65.8109 52.88 65.7936 52.88 65.785 52.8973C65.7247 52.9231 65.6643 52.949 65.604 52.9835L65.4488 53.0611C65.4488 53.0611 65.4057 53.0869 65.3885 53.1042C65.3195 53.1473 65.2506 53.1904 65.1903 53.2421C64.9748 53.4145 64.8024 53.6127 64.6817 53.8282C64.6817 53.8282 64.6731 53.8455 64.6731 53.8541C64.6386 53.9144 64.6127 53.9748 64.5782 54.0437C64.5696 54.061 64.561 54.0868 64.5524 54.1127C64.5351 54.1644 64.5179 54.2161 64.5007 54.2592C64.492 54.2937 64.4834 54.3368 64.4748 54.3713C64.4662 54.4058 64.4576 54.4489 64.4489 54.4833C64.4403 54.5351 64.4317 54.5954 64.4231 54.6471V54.7161C64.4231 54.785 64.4145 54.854 64.4145 54.9229V54.9574C64.4145 55.035 64.4145 55.1126 64.4231 55.1902V55.2074C64.4231 55.285 64.4403 55.3626 64.4576 55.4488V55.4746C64.4748 55.5522 64.4834 55.6212 64.5093 55.6901C64.5093 55.7074 64.5179 55.7246 64.5265 55.7418C64.5438 55.8022 64.561 55.8625 64.5869 55.9229C64.5955 55.9573 64.6127 55.9918 64.6213 56.0263C64.63 56.0694 64.6472 56.1039 64.6644 56.147C64.6903 56.2073 64.7075 56.259 64.742 56.3107C64.742 56.328 64.7593 56.3366 64.7593 56.3538C65.2765 57.4313 66.3281 58.345 67.5262 58.4226H67.759C67.8365 58.4226 67.9055 58.4226 67.9831 58.4054H68.0003C68.121 58.3967 68.2417 58.3709 68.3624 58.345H68.3968C68.3968 58.345 68.4141 58.3364 68.4227 58.3364L68.5089 58.3192C68.5089 58.3192 68.5606 58.3019 68.5865 58.2933C69.3623 58.0951 69.8364 57.6727 70.0777 57.1469C70.0949 57.1124 70.1036 57.0779 70.1208 57.0434C70.1294 57.0176 70.1467 56.9831 70.1553 56.9486V56.9831Z" fill="white"/>
<path d="M9.0233 56.8021C9.0233 56.8021 9.04916 56.759 9.0664 56.7331C9.09226 56.6986 9.11812 56.6555 9.13536 56.6211C9.16122 56.5693 9.1957 56.5176 9.22156 56.4659C9.22156 56.4573 9.23018 56.4487 9.2388 56.44C9.71289 55.5177 9.78185 54.4058 9.16122 53.4921C8.60093 52.7766 7.39415 52.406 6.27357 52.5611C5.58398 52.6387 4.93749 52.9145 4.48926 53.4231C3.39454 54.5609 3.13594 56.5693 4.22204 57.621C4.2479 57.6468 4.27376 57.6641 4.291 57.6899C4.29962 57.6985 4.30824 57.7072 4.31686 57.7158C4.60993 57.9744 4.98921 58.1554 5.47192 58.2502H5.48054C5.84257 58.3709 6.19599 58.4054 6.54078 58.3709C6.60974 58.3709 6.68732 58.3536 6.75628 58.345H6.78214C6.84248 58.3364 6.91143 58.3192 6.97177 58.3019C6.98901 58.3019 6.99763 58.3019 7.00625 58.2933C7.06659 58.2761 7.12693 58.2588 7.19589 58.2416C7.20451 58.2416 7.21313 58.2416 7.22175 58.233C7.28209 58.2071 7.35105 58.1899 7.41139 58.1554H7.42863C7.99754 57.914 8.49749 57.5089 8.87676 57.0003C8.91986 56.94 8.95434 56.8883 8.99744 56.8279L9.0233 56.8021Z" fill="white"/>
<path d="M192.678 36.2093C194.747 34.968 195.721 32.9596 195.721 30.4253C195.721 26.7619 192.574 23.8225 187.721 23.8225C183.334 23.8225 178.946 25.9861 178.895 31.6666L183.799 32.2872C183.644 29.2961 185.144 28.0549 187.515 28.0549C189.325 28.0549 190.713 29.4513 190.713 31.3046C190.713 32.8992 189.98 33.8819 186.972 34.3215C186.609 34.3732 185.472 34.5284 184.394 34.7353L184.799 38.8297H187.118C189.954 38.8297 191.118 40.2864 191.118 42.45C191.118 43.6913 189.98 45.8549 187.196 45.8549C184.411 45.8549 183.584 44.105 183.532 41.9328L178.369 42.3983C178.576 46.6306 180.688 50.2424 187.299 50.2424C193.911 50.2424 196.436 46.01 196.436 42.7086C196.436 39.4072 194.936 37.2954 192.669 36.2093H192.678Z" fill="white"/>
<path d="M125.641 31.6752C120.116 31.6752 116.349 35.8558 116.349 41.0105C116.349 46.1652 120.116 50.3027 125.641 50.3027C131.167 50.3027 134.977 46.1738 134.977 41.0105C134.977 35.8472 131.21 31.6752 125.641 31.6752ZM125.641 46.3893C122.805 46.3893 120.995 43.9671 120.995 41.0191C120.995 38.0711 122.805 35.649 125.641 35.649C128.477 35.649 130.287 38.0711 130.287 41.0191C130.287 43.9671 128.589 46.3893 125.641 46.3893Z" fill="white"/>
<path d="M170.749 33.4854C169.318 32.3476 167.491 31.6752 165.396 31.6752C160.207 31.6752 156.673 35.8558 156.673 41.0105C156.673 46.1652 160.215 50.3027 165.396 50.3027C167.629 50.3027 169.559 49.3114 171.033 47.8805L170.964 49.9148H175.473V24.2966H170.758V33.4854H170.749ZM165.956 46.3807C163.12 46.3807 161.31 43.9585 161.31 41.0105C161.31 38.0625 163.12 35.6403 165.956 35.6403C168.792 35.6403 170.602 37.2954 170.602 41.0105C170.602 44.7257 168.904 46.3807 165.956 46.3807Z" fill="white"/>
<path d="M141.295 35.037L141.45 31.8821H136.942V49.8976H141.657V40.1744C141.657 37.2523 143.028 36.2524 145.682 36.2524H148.208V31.9252C144.648 31.0115 142.398 32.5458 141.286 35.0456H141.295V35.037Z" fill="white"/>
<path d="M112.72 26.2016L108.522 44.8636H108.307L103.893 26.1757H98.506L93.9806 44.9153H93.7306L89.8603 26.1757L84.878 26.2533L90.5326 50.4406H97.2475L101.006 34.2439H101.256L105.048 50.4148H111.815L117.608 26.2016H112.711H112.72Z" fill="white"/>
<path d="M209.306 33.3216C206.987 33.2699 204.772 34.0284 203.211 35.7438C203.263 32.8216 204.315 28.7876 207.745 28.4341C209.659 28.279 211.021 29.4944 211.271 31.4597L216.408 30.908C215.908 27.1756 212.831 23.7018 207.737 23.8484C200.582 24.0035 197.815 30.7012 197.815 37.8039C197.815 45.5187 201.091 50.3027 207.995 50.3027C214.038 50.3027 217.322 45.5187 217.322 41.4329C217.322 36.1403 213.038 33.4164 209.306 33.3216ZM207.745 45.7169C205.478 45.7169 203.565 43.8551 203.565 41.588C203.565 39.321 205.478 37.5108 207.745 37.5108C210.012 37.5108 211.926 39.321 211.926 41.588C211.926 43.8551 210.064 45.7169 207.745 45.7169Z" fill="white"/>
<path d="M229.536 23.8311C224.364 23.8311 219.193 27.5722 219.193 36.9937C219.193 46.4152 224.364 50.3027 229.536 50.3027C234.708 50.3027 239.932 46.26 239.932 36.9937C239.932 27.7273 234.76 23.8311 229.536 23.8311ZM229.536 45.6394C227.028 45.6394 224.882 43.6913 224.882 36.985C224.882 30.2788 227.028 28.3824 229.536 28.3824C232.045 28.3824 234.295 30.5288 234.295 36.985C234.295 43.4413 232.088 45.6394 229.536 45.6394Z" fill="white"/>
<path d="M149.958 24.3225H154.69V44.8119C154.69 45.3722 155.147 45.829 155.707 45.829H156.337V49.9234H154.647C152.061 49.9234 149.966 48.4494 149.966 45.2429V24.3311L149.958 24.3225Z" fill="white"/>
<path d="M136.89 66.6373L134.778 62.8187H132.994V66.6373H131.598V57.5692H135.339C136.287 57.5692 137.019 57.802 137.58 58.2847C138.14 58.7674 138.407 59.3708 138.407 60.138C138.407 61.3965 137.606 62.3533 136.261 62.6981L138.511 66.6373H136.89ZM132.985 58.7846V61.5947H135.235C136.416 61.5947 136.994 61.1292 136.994 60.1983C136.994 59.2674 136.407 58.7846 135.235 58.7846H132.985Z" fill="white"/>
<path d="M140.252 66.6373V57.5692H146.208V58.8105H141.648V61.3189H145.846V62.5601H141.648V65.3874H146.243V66.6287H140.243L140.252 66.6373Z" fill="white"/>
<path d="M159.164 57.5692L156.664 66.6373H155.147L153.294 59.4915L151.44 66.6373H149.923L147.424 57.5692H148.889L150.492 63.8531C150.596 64.2669 150.673 64.5772 150.716 64.8013L150.941 63.8445L152.561 57.5779H154.035L155.656 63.8445C155.759 64.2669 155.837 64.5858 155.88 64.8013L156.104 63.8531L157.707 57.5692H159.172H159.155H159.164Z" fill="white"/>
<path d="M158.931 66.6373L162.56 57.5692H163.957L167.585 66.6373H166.111L165.137 64.1117H161.379L160.405 66.6373H158.923H158.931ZM163.25 59.1639L162.939 60.0259L161.836 62.8877H164.663L163.56 60.0259L163.25 59.1639Z" fill="white"/>
<path d="M174.111 66.6373L171.999 62.8187H170.215V66.6373H168.818V57.5692H172.559C173.507 57.5692 174.24 57.802 174.8 58.2847C175.361 58.7674 175.628 59.3708 175.628 60.138C175.628 61.3965 174.826 62.3533 173.481 62.6981L175.731 66.6373H174.111ZM170.206 58.7846V61.5947H172.456C173.637 61.5947 174.214 61.1292 174.214 60.1983C174.214 59.2674 173.628 58.7846 172.456 58.7846H170.206Z" fill="white"/>
<path d="M177.472 66.6373V57.5692H180.093C181.515 57.5692 182.67 57.9744 183.549 58.7588C184.429 59.5518 184.868 60.6638 184.868 62.1033C184.868 63.5428 184.429 64.6634 183.549 65.4564C182.67 66.2408 181.515 66.6373 180.093 66.6373H177.472ZM180.119 65.3702C182.153 65.3702 183.446 64.241 183.446 62.1033C183.446 59.9656 182.153 58.8364 180.119 58.8364H178.877V65.3616H180.119V65.3702Z" fill="white"/>
<path d="M190.463 61.3792C192.445 61.7585 193.385 62.586 193.385 64.0859C193.385 64.8444 193.074 65.4995 192.462 66.0253C191.85 66.5511 191.066 66.8097 190.066 66.8097C187.997 66.8097 186.661 65.6547 186.351 63.9479L187.584 63.3101C187.842 64.8272 188.67 65.5943 190.057 65.5943C191.212 65.5943 191.988 64.9478 191.988 64.1289C191.988 63.2066 191.307 62.7843 189.687 62.4653C187.877 62.1033 186.773 61.2499 186.773 59.8018C186.773 59.0863 187.058 58.5088 187.635 58.052C188.213 57.5951 188.954 57.3796 189.876 57.3796C191.523 57.3796 192.721 58.1985 193.23 59.6294L192.118 60.2759C191.738 59.1467 190.988 58.595 189.868 58.595C188.868 58.595 188.092 59.0346 188.092 59.7759C188.092 60.5948 188.816 61.043 190.463 61.3706V61.3792Z" fill="white"/>
<path d="M195.316 58.4657H196.152C196.583 58.4657 196.927 58.7243 196.927 59.1381C196.927 59.4397 196.755 59.6639 196.496 59.7759L196.884 60.4914H196.402L196.083 59.8449H195.755V60.4914H195.316V58.4657ZM196.436 59.1553C196.436 58.957 196.333 58.8795 196.16 58.8795H195.755V59.4398H196.16C196.333 59.4398 196.436 59.3277 196.436 59.1639V59.1553Z" fill="white"/>
<path d="M196.022 61.4654C194.928 61.4654 194.04 60.5776 194.04 59.4828C194.04 58.3881 194.928 57.5003 196.022 57.5003C197.117 57.5003 198.005 58.3881 198.005 59.4828C198.005 60.5776 197.117 61.4654 196.022 61.4654ZM196.022 57.9054C195.152 57.9054 194.445 58.6122 194.445 59.4828C194.445 60.3535 195.152 61.0603 196.022 61.0603C196.893 61.0603 197.6 60.3535 197.6 59.4828C197.6 58.6122 196.893 57.9054 196.022 57.9054Z" fill="white"/>
</g>
<defs>
<clipPath id="clip0_230_782">
<rect width="250" height="75" fill="white"/>
</clipPath>
</defs>
</svg>
